<mxfile host="65bd71144e">
    <diagram id="kQBGOtjCjaonMq2VdsYr" name="Page-1">
        <mxGraphModel dx="586" dy="1436" grid="1" gridSize="10" guides="1" tooltips="1" connect="1" arrows="1" fold="1" page="1" pageScale="1" pageWidth="850" pageHeight="1100" math="0" shadow="0">
            <root>
                <mxCell id="0"/>
                <mxCell id="1" parent="0"/>
                <mxCell id="5D6t_ty43IaCnQEBEcoF-4" value="Pool" style="swimlane;childLayout=stackLayout;resizeParent=1;resizeParentMax=0;horizontal=1;startSize=20;horizontalStack=0;html=1;" vertex="1" parent="1">
                    <mxGeometry x="60" y="-10" width="480" height="380" as="geometry"/>
                </mxCell>
                <mxCell id="5D6t_ty43IaCnQEBEcoF-5" value="Lane 1" style="swimlane;startSize=20;horizontal=0;html=1;" vertex="1" parent="5D6t_ty43IaCnQEBEcoF-4">
                    <mxGeometry y="20" width="480" height="120" as="geometry"/>
                </mxCell>
                <mxCell id="5D6t_ty43IaCnQEBEcoF-6" value="Lane 2" style="swimlane;startSize=20;horizontal=0;html=1;" vertex="1" parent="5D6t_ty43IaCnQEBEcoF-4">
                    <mxGeometry y="140" width="480" height="120" as="geometry"/>
                </mxCell>
                <mxCell id="5D6t_ty43IaCnQEBEcoF-7" value="Lane 3" style="swimlane;startSize=20;horizontal=0;html=1;" vertex="1" parent="5D6t_ty43IaCnQEBEcoF-4">
                    <mxGeometry y="260" width="480" height="120" as="geometry"/>
                </mxCell>
            </root>
        </mxGraphModel>
    </diagram>
</mxfile>